<svg xmlns="http://www.w3.org/2000/svg" viewBox="0 0 100 100" fill="none">
	<path fill="#fff" stroke="#000" stroke-linecap="round" stroke-linejoin="round" stroke-width="2" d="M27 94h46a3 3 0 0 0 3-3v-6.6a3 3 0 0 0-1.8-2.8L67.5 78a23.8 23.8 0 0 1-6.7-5.7c-1.5-2.1-2.1-5-2-8.1 0-3.2.7-6.7 1.6-10 1-3.3 2-6.4 3-8.9v-.1l1.1-3.1A17 17 0 0 0 65 40c0-2-1.4-3.6-2.5-4.5-.7-.6-.8-1.4-.5-1.8l3.5-5.7c.3-.5.5-1 .5-1.6V24a3 3 0 0 0-3-3h-9.5a1 1 0 0 1-1-1v-2.5c0-.6.4-1 1-1h2a2.5 2.5 0 0 0 0-5h-2a1 1 0 0 1-1-1v-2a2.5 2.5 0 0 0-5 0v2c0 .6-.4 1-1 1h-2a2.5 2.5 0 0 0 0 5h2c.6 0 1 .4 1 1V20c0 .6-.4 1-1 1H37a3 3 0 0 0-3 3v2.4c0 .6.2 1.1.5 1.6l3.5 5.7c.3.4.2 1.2-.5 1.8-1 .9-2.5 2.4-2.5 4.5l.1 1 .4 1.2 1.1 3v.2c1 2.5 2 5.6 3 9a38 38 0 0 1 1.7 9.9c0 3.2-.6 6-2.1 8.1a24 24 0 0 1-6.7 5.7 56.7 56.7 0 0 1-6.7 3.5 3 3 0 0 0-1.8 2.8V91a3 3 0 0 0 3 3z"/>
</svg>
