<svg xmlns="http://www.w3.org/2000/svg" viewBox="0 0 100 100" fill="none"><path fill="#000" stroke="#fff" stroke-linecap="round" stroke-linejoin="round" stroke-width="2" d="M27 91h46a3 3 0 0 0 3-3v-7a3 3 0 0 0-1.1-2.4 50.5 50.5 0 0 1-9-9.2 48.2 48.2 0 0 1-5.5-13.6c-1.3-4.7-2-9-2.3-10.9 0-.3.1-.6.4-1 1-1 2.9-2.9 4.5-5.3 1.6-2.5 3-5.5 3-8.6 0-7.4-5.3-16-16-16s-16 8.6-16 16c0 3.1 1.4 6.1 3 8.6a37 37 0 0 0 4.5 5.4c.3.3.4.6.4.9-.3 1.9-1 6.2-2.3 11-1.2 4.7-3 9.9-5.4 13.5a50.5 50.5 0 0 1-9 9.2A3 3 0 0 0 24 81v7a3 3 0 0 0 3 3z"/></svg>