<svg xmlns="http://www.w3.org/2000/svg" viewBox="0 0 100 100" fill="none"><path fill="#fff" stroke="#000" stroke-linecap="round" stroke-linejoin="round" stroke-width="2" d="M27 91h46a3 3 0 0 0 3-3v-7.2a3 3 0 0 0-.9-2l-8-8c-.4-.5-.4-1.2 0-1.7A47.2 47.2 0 0 0 76 40c0-10-4-17.6-9.8-22.1-5.9-4.6-13.6-6-21-4.1-.4 0-.7 0-1-.2l-2.9-2c-1.5-1-3.2-.4-4.1.6-1 1-1.7 2.6-.8 4.1a35 35 0 0 1 2.3 5c.5 1.6.6 2.7.4 3.3a7.6 7.6 0 0 1-3 3.2l-3.4 2-1.6 1c-3.4 2-7.1 4.6-7.1 9.2 0 2.2.7 3.8 2.1 4.8 1.4 1 3.3 1.2 5.5 1.1a83 83 0 0 0 18-4.6c.2 0 .3.1.3.2 1.2 1.9.8 4.8-.9 8.4a59.7 59.7 0 0 1-7.7 11.6C34.9 69.4 27.2 76.6 25 78.7a3 3 0 0 0-1 2.2V88a3 3 0 0 0 3 3z"/></svg>