<svg xmlns="http://www.w3.org/2000/svg" viewBox="0 0 100 100" fill="none">
	<path fill="#000" stroke="#fff" stroke-linecap="round" stroke-linejoin="round" stroke-width="2" d="M27 93h46a3 3 0 0 0 3-3v-6.6a3 3 0 0 0-1.8-2.8L67.5 77a23.8 23.8 0 0 1-6.7-5.7 14 14 0 0 1-2-8.4c0-3.4.7-7.1 1.6-10.7A133.7 133.7 0 0 1 64.9 38l.1-1c0-2-1.3-3.5-2.3-4.4-.7-.6-.8-1.5-.4-2 1.4-2 3.7-5.2 5.7-8.4.7-1.2.5-2.5-.4-3.3-1-.7-2.2-.7-3.3.1l-4 3a1 1 0 0 1-1.6-.7l-.2-2A3 3 0 0 0 53 18l-2.2 3.2a1 1 0 0 1-1.6 0L47 17.9a3 3 0 0 0-5.5 1.5l-.2 2a1 1 0 0 1-1.6.6l-4-3c-1-.8-2.4-.8-3.3 0-1 .7-1 2-.4 3.2 2 3.2 4.3 6.4 5.7 8.5.4.4.3 1.3-.4 2-1 .8-2.3 2.3-2.3 4.3l.1 1 .4 1.3 1 3.1.1.3c1 2.7 2 6 3 9.6 1 3.6 1.6 7.3 1.7 10.7a14 14 0 0 1-2.1 8.4 24 24 0 0 1-6.7 5.7 56.7 56.7 0 0 1-6.7 3.5 3 3 0 0 0-1.8 2.8V90a3 3 0 0 0 3 3zm23-78c1 0 1.9-.3 2.5-1 .7-.6 1-1.5 1-2.5s-.3-1.9-1-2.5C52 8.3 51 8 50 8s-1.9.3-2.5 1c-.7.6-1 1.5-1 2.5s.3 1.9 1 2.5c.6.7 1.5 1 2.5 1z"/>
</svg>
