<svg xmlns="http://www.w3.org/2000/svg" viewBox="0 0 100 100" fill="none"><path fill="#000" stroke="#fff" stroke-linecap="round" stroke-linejoin="round" stroke-width="2" d="M27 91h46a3 3 0 0 0 3-3v-7.7l-.1-.9-12-38.4a1 1 0 0 1 .3-1l10.7-8.6A3 3 0 0 0 76 29V12a3 3 0 0 0-3-3h-8.5a3 3 0 0 0-3 3v6c0 .6-.4 1-1 1h-2.3a1 1 0 0 1-1-1v-6a3 3 0 0 0-3-3h-8.5a3 3 0 0 0-3 3v6c0 .6-.4 1-1 1h-2.2a1 1 0 0 1-1-1v-6a3 3 0 0 0-3-3H27a3 3 0 0 0-3 3v17a3 3 0 0 0 1.1 2.4l10.7 8.5c.3.3.5.7.3 1.1l-12 38.4-.1 1V88a3 3 0 0 0 3 3z"/></svg>